<svg xmlns="http://www.w3.org/2000/svg" width="24" height="16" viewBox="0 0 24 16">
  <path id="Union_67" data-name="Union 67" d="M-3725.044,3616.694l-5.957-5.972c-.558-.56-1-1-1-1.721s.441-1.163,1-1.721l5.958-5.974a1.039,1.039,0,0,1,1.472,0,1.044,1.044,0,0,1,0,1.475l-5.162,5.176h19.693A1.043,1.043,0,0,1-3708,3609a1.042,1.042,0,0,1-1.041,1.042h-19.693l5.162,5.176a1.045,1.045,0,0,1,0,1.476,1.035,1.035,0,0,1-.736.306A1.038,1.038,0,0,1-3725.044,3616.694Z" transform="translate(3732 -3601)" fill="#323e48"/>
</svg>
